<svg width="20" height="21" viewBox="0 0 20 21" xmlns="http://www.w3.org/2000/svg">
  <path d="M2.0835 6.12516C2.0835 4.16915 3.66915 2.5835 5.62516 2.5835C7.58117 2.5835 9.16683 4.16915 9.16683 6.12516C9.16683 8.08117 7.58117 9.66683 5.62516 9.66683C3.66915 9.66683 2.0835 8.08117 2.0835 6.12516ZM5.62516 4.25016C4.58963 4.25016 3.75016 5.08963 3.75016 6.12516C3.75016 7.1607 4.58963 8.00016 5.62516 8.00016C6.6607 8.00016 7.50016 7.1607 7.50016 6.12516C7.50016 5.08963 6.6607 4.25016 5.62516 4.25016Z" fill="#454545"/>
  <path d="M14.3752 2.5835C12.4192 2.5835 10.8335 4.16915 10.8335 6.12516C10.8335 8.08117 12.4192 9.66683 14.3752 9.66683C16.3312 9.66683 17.9168 8.08117 17.9168 6.12516C17.9168 4.16915 16.3312 2.5835 14.3752 2.5835ZM12.5002 6.12516C12.5002 5.08963 13.3396 4.25016 14.3752 4.25016C15.4107 4.25016 16.2502 5.08963 16.2502 6.12516C16.2502 7.1607 15.4107 8.00016 14.3752 8.00016C13.3396 8.00016 12.5002 7.1607 12.5002 6.12516Z" fill="#454545"/>
  <path d="M14.3752 11.3335C12.4192 11.3335 10.8335 12.9192 10.8335 14.8752C10.8335 16.8312 12.4192 18.4168 14.3752 18.4168C16.3312 18.4168 17.9168 16.8312 17.9168 14.8752C17.9168 12.9192 16.3312 11.3335 14.3752 11.3335ZM12.5002 14.8752C12.5002 13.8396 13.3396 13.0002 14.3752 13.0002C15.4107 13.0002 16.2502 13.8396 16.2502 14.8752C16.2502 15.9107 15.4107 16.7502 14.3752 16.7502C13.3396 16.7502 12.5002 15.9107 12.5002 14.8752Z" fill="#454545"/>
  <path d="M5.62516 11.3335C3.66915 11.3335 2.0835 12.9192 2.0835 14.8752C2.0835 16.8312 3.66915 18.4168 5.62516 18.4168C7.58117 18.4168 9.16683 16.8312 9.16683 14.8752C9.16683 12.9192 7.58117 11.3335 5.62516 11.3335ZM3.75016 14.8752C3.75016 13.8396 4.58963 13.0002 5.62516 13.0002C6.6607 13.0002 7.50016 13.8396 7.50016 14.8752C7.50016 15.9107 6.6607 16.7502 5.62516 16.7502C4.58963 16.7502 3.75016 15.9107 3.75016 14.8752Z" fill="#454545"/>
</svg>

