<svg width="12" height="14" viewBox="0 0 12 14" fill="none" xmlns="http://www.w3.org/2000/svg">
<path fill-rule="evenodd" clip-rule="evenodd" d="M5.61254 0.730352C5.83355 0.533893 6.16661 0.533893 6.38763 0.730352L11.6376 5.39702C11.7622 5.50772 11.8334 5.66639 11.8334 5.83301V12.833C11.8334 13.1552 11.5722 13.4163 11.2501 13.4163H0.750081C0.427915 13.4163 0.166748 13.1552 0.166748 12.833V5.83301C0.166748 5.66639 0.238001 5.50772 0.362536 5.39702L5.61254 0.730352ZM5.41675 12.2497H6.58342V9.91634H5.41675V12.2497ZM7.75008 12.2497V9.33301C7.75008 9.01084 7.48891 8.74967 7.16675 8.74967H4.83342C4.51125 8.74967 4.25008 9.01084 4.25008 9.33301V12.2497H3.37508V7.58301H8.62508V12.2497H7.75008ZM10.6667 12.2497H9.79175V7.58301H10.6667V12.2497ZM10.6667 6.41634H9.79175V5.31719L10.6667 6.09496V6.41634ZM8.62508 6.41634V4.28015L6.00008 1.94682L3.37508 4.28015V6.41634H8.62508ZM2.20841 7.58301V12.2497H1.33341V7.58301H2.20841ZM2.20841 5.31719V6.41634H1.33341V6.09496L2.20841 5.31719Z" fill="#1B27B2"/>
</svg>
