<svg width="16" height="16" viewBox="0 0 16 16" fill="none" xmlns="http://www.w3.org/2000/svg">
<path d="M2.66699 2C1.93061 2 1.33366 2.59695 1.33366 3.33333C1.33366 4.06973 1.93062 4.66667 2.66699 4.66667C3.40337 4.66667 4.00033 4.06973 4.00033 3.33333C4.00033 2.59695 3.40337 2 2.66699 2Z" fill="#3D3D3D"/>
<path fill-rule="evenodd" clip-rule="evenodd" d="M2.66699 10.6667C1.56242 10.6667 0.666992 11.5621 0.666992 12.6667C0.666992 13.7712 1.56242 14.6667 2.66699 14.6667C3.77155 14.6667 4.66699 13.7712 4.66699 12.6667C4.66699 11.5621 3.77155 10.6667 2.66699 10.6667ZM2.00033 12.6667C2.00033 12.2985 2.29881 12 2.66699 12C3.03517 12 3.33366 12.2985 3.33366 12.6667C3.33366 13.0348 3.03517 13.3333 2.66699 13.3333C2.29881 13.3333 2.00033 13.0348 2.00033 12.6667Z" fill="#3D3D3D"/>
<path d="M1.33366 8C1.33366 7.2636 1.93062 6.66667 2.66699 6.66667C3.40337 6.66667 4.00033 7.2636 4.00033 8C4.00033 8.7364 3.40337 9.33333 2.66699 9.33333C1.93062 9.33333 1.33366 8.7364 1.33366 8Z" fill="#3D3D3D"/>
<path d="M6.66699 7.33333C6.2988 7.33333 6.00033 7.63181 6.00033 8C6.00033 8.36819 6.2988 8.66667 6.66699 8.66667H14.667C15.0352 8.66667 15.3337 8.36819 15.3337 8C15.3337 7.63181 15.0352 7.33333 14.667 7.33333H6.66699Z" fill="#3D3D3D"/>
<path d="M6.00033 12.6667C6.00033 12.2985 6.2988 12 6.66699 12H14.667C15.0352 12 15.3337 12.2985 15.3337 12.6667C15.3337 13.0349 15.0352 13.3333 14.667 13.3333H6.66699C6.2988 13.3333 6.00033 13.0349 6.00033 12.6667Z" fill="#3D3D3D"/>
<path d="M6.66699 2.66667C6.2988 2.66667 6.00033 2.96514 6.00033 3.33333C6.00033 3.70152 6.2988 4 6.66699 4H14.667C15.0352 4 15.3337 3.70152 15.3337 3.33333C15.3337 2.96514 15.0352 2.66667 14.667 2.66667H6.66699Z" fill="#3D3D3D"/>
</svg>
