<svg width="14" height="13" viewBox="0 0 14 13" fill="none" xmlns="http://www.w3.org/2000/svg">
<path d="M4.13807 1.13807C4.39842 0.877722 4.39842 0.455612 4.13807 0.195262C3.87772 -0.0650874 3.45561 -0.0650874 3.19526 0.195262L1.66667 1.72386L1.13807 1.19526C0.877722 0.934913 0.455612 0.934913 0.195262 1.19526C-0.0650874 1.45561 -0.0650874 1.87772 0.195262 2.13807L1.19526 3.13807C1.45561 3.39842 1.87772 3.39842 2.13807 3.13807L4.13807 1.13807Z" fill="#3D3D3D"/>
<path d="M4.13807 5.80474C4.39842 5.54439 4.39842 5.12228 4.13807 4.86193C3.87772 4.60158 3.45561 4.60158 3.19526 4.86193L1.66667 6.39052L1.13807 5.86193C0.877722 5.60158 0.455612 5.60158 0.195262 5.86193C-0.0650874 6.12228 -0.0650874 6.54439 0.195262 6.80474L1.19526 7.80474C1.45561 8.06509 1.87772 8.06509 2.13807 7.80474L4.13807 5.80474Z" fill="#3D3D3D"/>
<path d="M4.13807 9.5286C4.39842 9.78895 4.39842 10.2111 4.13807 10.4714L2.13807 12.4714C1.87772 12.7318 1.45561 12.7318 1.19526 12.4714L0.195262 11.4714C-0.0650874 11.2111 -0.0650874 10.7889 0.195262 10.5286C0.455612 10.2682 0.877722 10.2682 1.13807 10.5286L1.66667 11.0572L3.19526 9.5286C3.45561 9.26825 3.87772 9.26825 4.13807 9.5286Z" fill="#3D3D3D"/>
<path d="M6 5.66667C5.63181 5.66667 5.33333 5.96514 5.33333 6.33333C5.33333 6.70152 5.63181 7 6 7H13.3333C13.7015 7 14 6.70152 14 6.33333C14 5.96514 13.7015 5.66667 13.3333 5.66667H6Z" fill="#3D3D3D"/>
<path d="M5.33333 11C5.33333 10.6318 5.63181 10.3333 6 10.3333H13.3333C13.7015 10.3333 14 10.6318 14 11C14 11.3682 13.7015 11.6667 13.3333 11.6667H6C5.63181 11.6667 5.33333 11.3682 5.33333 11Z" fill="#3D3D3D"/>
<path d="M6 1C5.63181 1 5.33333 1.29848 5.33333 1.66667C5.33333 2.03486 5.63181 2.33333 6 2.33333H13.3333C13.7015 2.33333 14 2.03486 14 1.66667C14 1.29848 13.7015 1 13.3333 1H6Z" fill="#3D3D3D"/>
</svg>
