<svg width="20" height="21" viewBox="0 0 20 21" xmlns="http://www.w3.org/2000/svg">
  <path d="M18.3335 3.4165C18.4574 3.419 18.5748 3.44164 18.6921 3.49744C18.8132 3.55531 18.9197 3.6425 19.0002 3.74984C19.053 3.8285 19.0406 3.80489 19.0002 3.74984C19.1081 3.89376 19.1668 4.06998 19.1668 4.24984C19.1665 4.20545 19.1647 4.18618 19.1668 4.24984V16.7498C19.1668 17.2101 18.7937 17.5832 18.3335 17.5832H1.66683C1.20659 17.5832 0.833496 17.2101 0.833496 16.7498V4.24984C0.833496 4.10065 0.873968 3.95251 0.950099 3.82456C1.10524 3.56315 1.37396 3.42241 1.66683 3.4165H18.3335ZM17.5002 5.9165L10.5002 11.1665C10.2335 11.3665 9.87683 11.3865 9.59216 11.2265L9.50016 11.1665L2.50016 5.9165V15.9165H17.5002V5.9165ZM4.16683 5.08317L10.0002 9.45817L15.8335 5.08317H4.16683Z" fill="#454545"/>
</svg>

