<svg width="15" height="15" viewBox="0 0 15 15" fill="none" xmlns="http://www.w3.org/2000/svg">
<path d="M7.33333 0C11.3834 0 14.6667 3.28324 14.6667 7.33333C14.6667 11.3834 11.3834 14.6667 7.33333 14.6667C3.28324 14.6667 0 11.3834 0 7.33333C0 3.28324 3.28324 0 7.33333 0ZM7.33333 1.33333C4.01962 1.33333 1.33333 4.01962 1.33333 7.33333C1.33333 10.647 4.01962 13.3333 7.33333 13.3333C10.647 13.3333 13.3333 10.647 13.3333 7.33333C13.3333 4.01962 10.647 1.33333 7.33333 1.33333ZM9.96481 9.07038C10.2941 9.23504 10.4276 9.63549 10.263 9.96481C10.1446 10.2016 9.91995 10.5187 9.56791 10.8316C8.98273 11.3518 8.23484 11.6667 7.33333 11.6667C6.43183 11.6667 5.68394 11.3518 5.09876 10.8316C4.74672 10.5187 4.5221 10.2016 4.40372 9.96481C4.23906 9.63549 4.37254 9.23504 4.70186 9.07038C5.00765 8.91748 5.37478 9.02166 5.5575 9.30099L5.59628 9.36852C5.64457 9.4651 5.77412 9.64799 5.98458 9.83506C6.3369 10.1482 6.77651 10.3333 7.33333 10.3333C7.89016 10.3333 8.32977 10.1482 8.68209 9.83506C8.86248 9.67471 8.98343 9.51744 9.04471 9.41496L9.07038 9.36852C9.23504 9.03921 9.63549 8.90572 9.96481 9.07038ZM9.66667 4.66667C10.0086 4.66667 10.2903 4.92403 10.3288 5.25559L10.3333 5.33333V6.66667C10.3333 7.03486 10.0349 7.33333 9.66667 7.33333C9.32478 7.33333 9.043 7.07597 9.00449 6.74441L9 6.66667V5.33333C9 4.96514 9.29848 4.66667 9.66667 4.66667ZM5 4.66667C5.34189 4.66667 5.62367 4.92403 5.66218 5.25559L5.66667 5.33333V6.66667C5.66667 7.03486 5.36819 7.33333 5 7.33333C4.65811 7.33333 4.37633 7.07597 4.33782 6.74441L4.33333 6.66667V5.33333C4.33333 4.96514 4.63181 4.66667 5 4.66667Z" fill="#3D3D3D"/>
</svg>
