<svg width="12" height="12" viewBox="0 0 12 12" fill="none" xmlns="http://www.w3.org/2000/svg">
<path d="M10.6667 6.66667V10.6667C10.6667 11.0203 10.5262 11.3594 10.2761 11.6095C10.0261 11.8595 9.68696 12 9.33333 12H1.33333C0.979711 12 0.640573 11.8595 0.390524 11.6095C0.140476 11.3594 0 11.0203 0 10.6667V2.66667C0 2.31304 0.140476 1.97391 0.390524 1.72386C0.640573 1.47381 0.979711 1.33333 1.33333 1.33333H5.33333V2.66667H1.33333V10.6667H9.33333V6.66667H10.6667ZM6.66667 0V1.33333H9.724L4.52867 6.52867L5.47133 7.47133L10.6667 2.276V5.33333H12V0H6.66667Z" fill="#2F5BF9"/>
</svg>
