<svg width="14" height="14" viewBox="0 0 14 14" fill="none" xmlns="http://www.w3.org/2000/svg">
<path fill-rule="evenodd" clip-rule="evenodd" d="M0.583252 2.04134C0.583252 1.23593 1.23617 0.583008 2.04159 0.583008H11.9583C12.7637 0.583008 13.4166 1.23593 13.4166 2.04134V4.95746C13.4166 4.95783 13.4166 4.95821 13.4166 4.95858V8.88942C13.4166 8.88979 13.4166 8.89017 13.4166 8.89054V11.958C13.4166 12.7634 12.7637 13.4163 11.9583 13.4163H2.04159C1.23618 13.4163 0.583252 12.7634 0.583252 11.958V8.90111C0.583252 8.901 0.583252 8.90122 0.583252 8.90111V4.96919C0.583252 4.96908 0.583252 4.9693 0.583252 4.96919V2.04134ZM1.74992 5.55182V8.31708L4.37492 8.3146V5.54933L1.74992 5.55182ZM4.37492 4.38267L1.74992 4.38515V2.04134C1.74992 1.88026 1.8805 1.74967 2.04159 1.74967H4.37492V4.38267ZM5.54159 5.54823V8.31351L8.45825 8.31076V5.54548L5.54159 5.54823ZM8.45825 4.37881L5.54159 4.38157V1.74967H8.45825V4.37881ZM9.62492 5.54437V8.30966L12.2499 8.30718V5.54189L9.62492 5.54437ZM12.2499 4.37523L9.62492 4.37771V1.74967H11.9583C12.1193 1.74967 12.2499 1.88025 12.2499 2.04134V4.37523ZM12.2499 9.47385L9.62492 9.47632V12.2497H11.9583C12.1193 12.2497 12.2499 12.1191 12.2499 11.958V9.47385ZM8.45825 12.2497V9.47742L5.54159 9.48017V12.2497H8.45825ZM4.37492 12.2497V9.48127L1.74992 9.48375V11.958C1.74992 12.1191 1.8805 12.2497 2.04159 12.2497H4.37492Z" fill="#1B27B2"/>
</svg>
