<svg width="15" height="15" viewBox="0 0 15 15" fill="none" xmlns="http://www.w3.org/2000/svg">
<path fill-rule="evenodd" clip-rule="evenodd" d="M7.01244 1.34803C7.23346 1.15157 7.56651 1.15157 7.78753 1.34803L13.0375 6.0147C13.1621 6.12539 13.2333 6.28406 13.2333 6.45068V13.4507C13.2333 13.7729 12.9721 14.034 12.65 14.034H2.14998C1.82782 14.034 1.56665 13.7729 1.56665 13.4507V6.45068C1.56665 6.28406 1.6379 6.12539 1.76244 6.0147L7.01244 1.34803ZM6.81665 12.8674H7.98332V10.534H6.81665V12.8674ZM9.14998 12.8674V9.95068C9.14998 9.62852 8.88882 9.36735 8.56665 9.36735H6.23332C5.91115 9.36735 5.64998 9.62852 5.64998 9.95068V12.8674H4.77498V8.20068H10.025V12.8674H9.14998ZM12.0667 12.8674H11.1917V8.20068H12.0667V12.8674ZM12.0667 7.03402H11.1917V5.93486L12.0667 6.71264V7.03402ZM10.025 7.03402V4.89782L7.39998 2.56449L4.77498 4.89782V7.03402H10.025ZM3.60832 8.20068V12.8674H2.73332V8.20068H3.60832ZM3.60832 5.93486V7.03402H2.73332V6.71264L3.60832 5.93486Z" fill="#1B27B2"/>
</svg>
