<svg width="16" height="14" viewBox="0 0 16 14" fill="none" xmlns="http://www.w3.org/2000/svg">
<path d="M0.299805 1.4999C0.299805 0.891465 0.791367 0.399902 1.3998 0.399902H14.5998C15.2082 0.399902 15.6998 0.891465 15.6998 1.4999C15.6998 2.10834 15.2082 2.5999 14.5998 2.5999H1.3998C0.791367 2.5999 0.299805 2.10834 0.299805 1.4999ZM0.299805 6.9999C0.299805 6.39146 0.791367 5.8999 1.3998 5.8999H14.5998C15.2082 5.8999 15.6998 6.39146 15.6998 6.9999C15.6998 7.60834 15.2082 8.0999 14.5998 8.0999H1.3998C0.791367 8.0999 0.299805 7.60834 0.299805 6.9999ZM15.6998 12.4999C15.6998 13.1083 15.2082 13.5999 14.5998 13.5999H1.3998C0.791367 13.5999 0.299805 13.1083 0.299805 12.4999C0.299805 11.8915 0.791367 11.3999 1.3998 11.3999H14.5998C15.2082 11.3999 15.6998 11.8915 15.6998 12.4999Z" fill="black"/>
</svg>
