<svg width="15" height="15" viewBox="0 0 15 15" fill="none" xmlns="http://www.w3.org/2000/svg">
<path fill-rule="evenodd" clip-rule="evenodd" d="M7.03544 1.91152C7.24848 1.74108 7.5512 1.74108 7.76425 1.91152L12.1391 5.41142C12.1391 5.41139 12.1392 5.41145 12.1391 5.41142L13.5976 6.57818C13.8492 6.77944 13.8899 7.14653 13.6887 7.3981C13.4874 7.64967 13.1203 7.69045 12.8688 7.4892L12.3582 7.08072V12.867C12.3582 13.1892 12.097 13.4504 11.7748 13.4504H3.02484C2.70268 13.4504 2.44151 13.1892 2.44151 12.867V7.08072L1.93091 7.4892C1.67935 7.69045 1.31226 7.64967 1.111 7.3981C0.909747 7.14653 0.950534 6.77944 1.2021 6.57818L2.66044 5.41152C2.66038 5.41156 2.66049 5.41147 2.66044 5.41152L7.03544 1.91152ZM3.60818 6.14739L7.39984 3.11406L11.1915 6.14739V12.2837H9.44151V9.07536C9.44151 8.75319 9.18034 8.49203 8.85818 8.49203H5.94151C5.61934 8.49203 5.35818 8.75319 5.35818 9.07536V12.2837H3.60818V6.14739ZM6.52484 12.2837H8.27484V9.65869H6.52484V12.2837Z" fill="#1B27B2"/>
</svg>
