<svg width="70" height="60" viewBox="0 0 70 60" fill="none" xmlns="http://www.w3.org/2000/svg">
<path fill-rule="evenodd" clip-rule="evenodd" d="M13.3333 17.5C13.3333 14.2783 15.945 11.6667 19.1667 11.6667C22.3883 11.6667 25 14.2783 25 17.5C25 20.7217 22.3883 23.3333 19.1667 23.3333C15.945 23.3333 13.3333 20.7217 13.3333 17.5ZM19.1667 18.3333C19.6269 18.3333 20 17.9602 20 17.5C20 17.0398 19.6269 16.6667 19.1667 16.6667C18.7064 16.6667 18.3333 17.0398 18.3333 17.5C18.3333 17.9602 18.7064 18.3333 19.1667 18.3333Z" fill="#D1D1D1"/>
<path fill-rule="evenodd" clip-rule="evenodd" d="M0 6.66667C0 2.98477 2.98477 0 6.66667 0H63.3333C67.0152 0 70 2.98477 70 6.66667V53.3333C70 53.7935 69.9533 54.2429 69.8646 54.6769C69.7278 55.3451 69.4911 55.9769 69.1707 56.556C68.0346 58.6096 65.8464 60.0001 63.3333 60.0001H6.66667C2.98477 60.0001 0 57.0153 0 53.3334M63.3333 39.9215V6.66667H6.66667V38.6194L17.643 27.6431C18.844 26.4421 20.756 26.3362 22.0823 27.3972L27.8995 32.0509L35.8025 22.8308C36.9536 21.4879 38.9531 21.2778 40.3582 22.3522L63.3333 39.9215Z" fill="#D1D1D1"/>
</svg>
