<svg width="16" height="17" viewBox="0 0 16 17" xmlns="http://www.w3.org/2000/svg">
  <path d="M8.83317 4.99984C8.83317 4.5396 8.46007 4.1665 7.99984 4.1665C7.5396 4.1665 7.1665 4.5396 7.1665 4.99984C7.1665 5.46007 7.5396 5.83317 7.99984 5.83317C8.46007 5.83317 8.83317 5.46007 8.83317 4.99984Z" fill="#6D6D6D"/>
  <path d="M6.83317 7.1665C6.83317 6.79831 7.13165 6.49984 7.49984 6.49984H8.1665C8.53469 6.49984 8.83317 6.79831 8.83317 7.1665V11.1665H9.33317C9.70136 11.1665 9.99984 11.465 9.99984 11.8332C9.99984 12.2014 9.70136 12.4998 9.33317 12.4998H6.99984C6.63165 12.4998 6.33317 12.2014 6.33317 11.8332C6.33317 11.465 6.63165 11.1665 6.99984 11.1665H7.49984V7.83317C7.13165 7.83317 6.83317 7.53469 6.83317 7.1665Z" fill="#6D6D6D"/>
  <path fill-rule="evenodd" clip-rule="evenodd" d="M7.99984 1.1665C5.97499 1.1665 4.14075 1.98805 2.81439 3.31438C1.48806 4.64074 0.666504 6.47499 0.666504 8.49984C0.666504 10.5247 1.48805 12.3589 2.81438 13.6853C4.14074 15.0116 5.97499 15.8332 7.99984 15.8332C10.0247 15.8332 11.8589 15.0116 13.1853 13.6853C14.5116 12.3589 15.3332 10.5247 15.3332 8.49984C15.3332 6.47499 14.5116 4.64074 13.1853 3.31439C11.8589 1.98805 10.0247 1.1665 7.99984 1.1665ZM3.75719 4.2572C4.84373 3.17068 6.34282 2.49984 7.99984 2.49984C9.65686 2.49984 11.1559 3.17068 12.2425 4.2572C13.329 5.34373 13.9998 6.84282 13.9998 8.49984C13.9998 10.1569 13.329 11.6559 12.2425 12.7425C11.1559 13.829 9.65686 14.4998 7.99984 14.4998C6.34282 14.4998 4.84373 13.829 3.7572 12.7425C2.67068 11.6559 1.99984 10.1569 1.99984 8.49984C1.99984 6.84282 2.67067 5.34374 3.75719 4.2572Z" fill="#6D6D6D"/>
</svg>

