<svg width="15" height="15" viewBox="0 0 15 15" fill="none" xmlns="http://www.w3.org/2000/svg">
<path fill-rule="evenodd" clip-rule="evenodd" d="M0.983154 2.65902C0.983154 1.8536 1.63607 1.20068 2.44149 1.20068H12.3582C13.1636 1.20068 13.8165 1.85361 13.8165 2.65902V5.57513C13.8165 5.57551 13.8165 5.57588 13.8165 5.57626V9.50709C13.8165 9.50747 13.8165 9.50784 13.8165 9.50822V12.5757C13.8165 13.3811 13.1636 14.034 12.3582 14.034H2.44149C1.63608 14.034 0.983154 13.3811 0.983154 12.5757V9.51879C0.983154 9.51868 0.983154 9.51889 0.983154 9.51879V5.58686C0.983154 5.58675 0.983154 5.58697 0.983154 5.58686V2.65902ZM2.14982 6.16949V8.93475L4.77482 8.93228V6.16701L2.14982 6.16949ZM4.77482 5.00034L2.14982 5.00282V2.65902C2.14982 2.49794 2.28041 2.36735 2.44149 2.36735H4.77482V5.00034ZM5.94149 6.16591V8.93118L8.85815 8.92843V6.16315L5.94149 6.16591ZM8.85815 4.99648L5.94149 4.99924V2.36735H8.85815V4.99648ZM10.0248 6.16205V8.92733L12.6498 8.92486V6.15957L10.0248 6.16205ZM12.6498 4.9929L10.0248 4.99538V2.36735H12.3582C12.5192 2.36735 12.6498 2.49793 12.6498 2.65902V4.9929ZM12.6498 10.0915L10.0248 10.094V12.8674H12.3582C12.5193 12.8674 12.6498 12.7368 12.6498 12.5757V10.0915ZM8.85815 12.8674V10.0951L5.94149 10.0978V12.8674H8.85815ZM4.77482 12.8674V10.0989L2.14982 10.1014V12.5757C2.14982 12.7368 2.2804 12.8674 2.44149 12.8674H4.77482Z" fill="#1B27B2"/>
</svg>
