<svg width="13" height="13" viewBox="0 0 13 13" fill="none" xmlns="http://www.w3.org/2000/svg">
<path fill-rule="evenodd" clip-rule="evenodd" d="M4.37492 3.20801C4.37492 1.75826 5.55017 0.583008 6.99992 0.583008C8.44967 0.583008 9.62492 1.75826 9.62492 3.20801C9.62492 4.65776 8.44967 5.83301 6.99992 5.83301C5.55017 5.83301 4.37492 4.65776 4.37492 3.20801ZM6.99992 1.74967C6.1945 1.74967 5.54159 2.40259 5.54159 3.20801C5.54159 4.01342 6.1945 4.66634 6.99992 4.66634C7.80533 4.66634 8.45825 4.01342 8.45825 3.20801C8.45825 2.40259 7.80533 1.74967 6.99992 1.74967Z" fill="#1B27B2"/>
<path d="M6.41659 7.87467C3.77277 7.87467 1.74992 9.76553 1.74992 11.958C1.74992 12.2802 1.48875 12.5413 1.16659 12.5413C0.844419 12.5413 0.583252 12.2802 0.583252 11.958C0.583252 8.99581 3.26142 6.70801 6.41659 6.70801C6.73875 6.70801 6.99992 6.96918 6.99992 7.29134C6.99992 7.61351 6.73875 7.87467 6.41659 7.87467Z" fill="#1B27B2"/>
<path fill-rule="evenodd" clip-rule="evenodd" d="M9.2895 7.58301C8.26663 7.58301 7.58325 8.51693 7.58325 9.47488C7.58325 10.3216 8.0069 11.0761 8.47493 11.6269C8.94137 12.1758 9.52744 12.6116 9.99761 12.7936C10.1331 12.8461 10.2834 12.8461 10.4189 12.7936C10.8891 12.6116 11.4751 12.1758 11.9416 11.6269C12.4096 11.0761 12.8333 10.3216 12.8333 9.47488C12.8333 8.51693 12.1499 7.58301 11.127 7.58301C10.7799 7.58301 10.4671 7.69579 10.2083 7.87945C9.94936 7.69579 9.63656 7.58301 9.2895 7.58301ZM8.74992 9.47488C8.74992 8.98743 9.07203 8.74967 9.2895 8.74967C9.43045 8.74967 9.59222 8.83078 9.709 9.02402C9.81464 9.19882 10.004 9.30565 10.2083 9.30565C10.4125 9.30565 10.6019 9.19882 10.7075 9.02402C10.8243 8.83078 10.9861 8.74967 11.127 8.74967C11.3445 8.74967 11.6666 8.98743 11.6666 9.47488C11.6666 9.93666 11.4267 10.4312 11.0525 10.8715C10.769 11.2051 10.4519 11.4564 10.2083 11.6003C9.96465 11.4564 9.64751 11.2051 9.36397 10.8715C8.98981 10.4312 8.74992 9.93666 8.74992 9.47488Z" fill="#1B27B2"/>
</svg>
