<svg width="14" height="12" viewBox="0 0 14 12" fill="none" xmlns="http://www.w3.org/2000/svg">
<path d="M2.33333 0.666686C2.33333 0.397045 2.17091 0.153954 1.92179 0.0507665C1.67267 -0.0524209 1.38593 0.0046163 1.19526 0.195282L0.528596 0.861948C0.268246 1.1223 0.268246 1.54441 0.528596 1.80476C0.65877 1.93493 0.829385 2.00002 1 2.00002V3.33335C0.63181 3.33335 0.333333 3.63183 0.333333 4.00002C0.333333 4.36821 0.63181 4.66669 1 4.66669H2.33333C2.70152 4.66669 3 4.36821 3 4.00002C3 3.63183 2.70152 3.33335 2.33333 3.33335V0.666686Z" fill="#3D3D3D"/>
<path d="M5.33333 1.94631e-05C4.96514 1.94631e-05 4.66667 0.298496 4.66667 0.666686C4.66667 1.03488 4.96514 1.33335 5.33333 1.33335H12.6667C13.0349 1.33335 13.3333 1.03488 13.3333 0.666686C13.3333 0.298496 13.0349 1.94631e-05 12.6667 1.94631e-05H5.33333Z" fill="#3D3D3D"/>
<path d="M5.33333 3.33335C4.96514 3.33335 4.66667 3.63183 4.66667 4.00002C4.66667 4.36821 4.96514 4.66669 5.33333 4.66669H12.6667C13.0349 4.66669 13.3333 4.36821 13.3333 4.00002C13.3333 3.63183 13.0349 3.33335 12.6667 3.33335H5.33333Z" fill="#3D3D3D"/>
<path d="M4.66667 7.33335C4.66667 6.96516 4.96514 6.66669 5.33333 6.66669H12.6667C13.0349 6.66669 13.3333 6.96516 13.3333 7.33335C13.3333 7.70154 13.0349 8.00002 12.6667 8.00002H5.33333C4.96514 8.00002 4.66667 7.70154 4.66667 7.33335Z" fill="#3D3D3D"/>
<path d="M5.33333 10C4.96514 10 4.66667 10.2985 4.66667 10.6667C4.66667 11.0349 4.96514 11.3334 5.33333 11.3334H12.6667C13.0349 11.3334 13.3333 11.0349 13.3333 10.6667C13.3333 10.2985 13.0349 10 12.6667 10H5.33333Z" fill="#3D3D3D"/>
<path d="M0 7.33335C0 6.96516 0.298477 6.66669 0.666667 6.66669H2.66667C3.03486 6.66669 3.33333 6.96516 3.33333 7.33335V8.33335C3.33333 8.51016 3.2631 8.67973 3.13807 8.80476L1.94281 10H2.66667C3.03486 10 3.33333 10.2985 3.33333 10.6667C3.33333 11.0349 3.03486 11.3334 2.66667 11.3334H0.666667C0.298477 11.3334 0 11.0349 0 10.6667V10.3334C0 10.1565 0.0702379 9.98697 0.195262 9.86195L2 8.05721V8.00002H0.666667C0.298477 8.00002 0 7.70154 0 7.33335Z" fill="#3D3D3D"/>
</svg>
