<svg width="14" height="15" viewBox="0 0 14 15" fill="none" xmlns="http://www.w3.org/2000/svg">
<path fill-rule="evenodd" clip-rule="evenodd" d="M4.37492 3.82568C4.37492 2.37594 5.55017 1.20068 6.99992 1.20068C8.44967 1.20068 9.62492 2.37594 9.62492 3.82568C9.62492 5.27543 8.44967 6.45068 6.99992 6.45068C5.55017 6.45068 4.37492 5.27543 4.37492 3.82568ZM6.99992 2.36735C6.1945 2.36735 5.54159 3.02027 5.54159 3.82568C5.54159 4.6311 6.1945 5.28402 6.99992 5.28402C7.80533 5.28402 8.45825 4.6311 8.45825 3.82568C8.45825 3.02027 7.80533 2.36735 6.99992 2.36735Z" fill="#1B27B2"/>
<path d="M6.41659 8.49235C3.77277 8.49235 1.74992 10.3832 1.74992 12.5757C1.74992 12.8979 1.48875 13.159 1.16659 13.159C0.844419 13.159 0.583252 12.8979 0.583252 12.5757C0.583252 9.61348 3.26142 7.32568 6.41659 7.32568C6.73875 7.32568 6.99992 7.58685 6.99992 7.90902C6.99992 8.23118 6.73875 8.49235 6.41659 8.49235Z" fill="#1B27B2"/>
<path fill-rule="evenodd" clip-rule="evenodd" d="M9.2895 8.20068C8.26663 8.20068 7.58325 9.13461 7.58325 10.0926C7.58325 10.9393 8.0069 11.6938 8.47493 12.2446C8.94137 12.7935 9.52744 13.2293 9.99761 13.4113C10.1331 13.4638 10.2834 13.4638 10.4189 13.4113C10.8891 13.2293 11.4751 12.7935 11.9416 12.2446C12.4096 11.6938 12.8333 10.9393 12.8333 10.0926C12.8333 9.13461 12.1499 8.20068 11.127 8.20068C10.7799 8.20068 10.4671 8.31347 10.2083 8.49713C9.94936 8.31347 9.63656 8.20068 9.2895 8.20068ZM8.74992 10.0926C8.74992 9.60511 9.07203 9.36735 9.2895 9.36735C9.43045 9.36735 9.59222 9.44845 9.709 9.64169C9.81464 9.8165 10.004 9.92333 10.2083 9.92333C10.4125 9.92333 10.6019 9.8165 10.7075 9.64169C10.8243 9.44845 10.9861 9.36735 11.127 9.36735C11.3445 9.36735 11.6666 9.60511 11.6666 10.0926C11.6666 10.5543 11.4267 11.0488 11.0525 11.4891C10.769 11.8228 10.4519 12.074 10.2083 12.2179C9.96465 12.074 9.64751 11.8228 9.36397 11.4891C8.98981 11.0488 8.74992 10.5543 8.74992 10.0926Z" fill="#1B27B2"/>
</svg>
