<svg width="12" height="12" viewBox="0 0 12 12" fill="none" xmlns="http://www.w3.org/2000/svg">
<path fill-rule="evenodd" clip-rule="evenodd" d="M6.02375 6.58205e-07C6.43796 0.000543582 6.7733 0.33677 6.77276 0.750983L6.76687 5.25H11.25C11.6642 5.25 12 5.58579 12 6C12 6.41421 11.6642 6.75 11.25 6.75H6.7649L6.759 11.251C6.75846 11.6652 6.42223 12.0005 6.00802 12C5.5938 11.9995 5.25846 11.6632 5.259 11.249L5.2649 6.75H0.75C0.335786 6.75 0 6.41421 0 6C0 5.58579 0.335786 5.25 0.75 5.25H5.26686L5.27276 0.749017C5.27331 0.334804 5.60953 -0.000542221 6.02375 6.58205e-07Z" fill="white"/>
</svg>
