<svg width="14" height="12" viewBox="0 0 14 12" fill="none" xmlns="http://www.w3.org/2000/svg">
<path fill-rule="evenodd" clip-rule="evenodd" d="M6.63553 0.294819C6.84858 0.124383 7.1513 0.124383 7.36435 0.294819L11.7392 3.79472C11.7392 3.79469 11.7393 3.79475 11.7392 3.79472L13.1977 4.96149C13.4492 5.16274 13.49 5.52983 13.2888 5.7814C13.0875 6.03297 12.7204 6.07375 12.4689 5.8725L11.9583 5.46402V11.2503C11.9583 11.5725 11.6971 11.8337 11.3749 11.8337H2.62494C2.30277 11.8337 2.04161 11.5725 2.04161 11.2503V5.46402L1.53101 5.8725C1.27944 6.07375 0.912356 6.03297 0.7111 5.7814C0.509844 5.52983 0.550632 5.16274 0.802201 4.96149L2.26053 3.79482C2.26048 3.79487 2.26059 3.79477 2.26053 3.79482L6.63553 0.294819ZM3.20827 4.53069L6.99994 1.49736L10.7916 4.53069V10.667H9.04161V7.45866C9.04161 7.13649 8.78044 6.87533 8.45827 6.87533H5.54161C5.21944 6.87533 4.95827 7.13649 4.95827 7.45866V10.667H3.20827V4.53069ZM6.12494 10.667H7.87494V8.04199H6.12494V10.667Z" fill="#1B27B2"/>
</svg>
