<svg width="14" height="14" viewBox="0 0 14 14" fill="none" xmlns="http://www.w3.org/2000/svg">
<path fill-rule="evenodd" clip-rule="evenodd" d="M6.66667 1.33333C3.72116 1.33333 1.33333 3.72116 1.33333 6.66667C1.33333 9.61218 3.72116 12 6.66667 12C8.13963 12 9.47204 11.4038 10.4379 10.4379C10.6982 10.1776 11.1203 10.1775 11.3807 10.4379C11.6411 10.6982 11.6411 11.1203 11.3807 11.3807C10.175 12.5864 8.50744 13.3333 6.66667 13.3333C2.98478 13.3333 0 10.3486 0 6.66667C0 2.98478 2.98478 0 6.66667 0C8.50744 0 10.175 0.746922 11.3807 1.95263C11.5488 2.12076 11.771 2.35616 12 2.60366V1.33333C12 0.965144 12.2985 0.666667 12.6667 0.666667C13.0349 0.666667 13.3333 0.965144 13.3333 1.33333V4.33333C13.3333 4.70152 13.0349 5 12.6667 5H9.66667C9.29848 5 9 4.70152 9 4.33333C9 3.96514 9.29848 3.66667 9.66667 3.66667H11.1665C10.8933 3.36924 10.6241 3.08164 10.4379 2.89544L10.4379 2.89543C9.47204 1.92956 8.13962 1.33333 6.66667 1.33333Z" fill="#3D3D3D"/>
</svg>