<svg width="20" height="20" viewBox="0 0 20 20" fill="none" xmlns="http://www.w3.org/2000/svg">
  <path d="M10 12.5C11.3807 12.5 12.5 11.3807 12.5 10C12.5 8.61929 11.3807 7.5 10 7.5C8.61929 7.5 7.5 8.61929 7.5 10C7.5 11.3807 8.61929 12.5 10 12.5Z" stroke="#724409" stroke-width="1.5" stroke-linecap="round" stroke-linejoin="round"/>
  <path d="M16.25 10C16.25 10.2167 16.225 10.425 16.1833 10.625L17.7583 11.875C17.9417 12.0083 17.9917 12.2667 17.875 12.475L15.8833 15.7083C15.7667 15.9167 15.5167 15.9917 15.3 15.8917L13.4417 14.9917C13.0833 15.2083 12.6917 15.3833 12.275 15.5083L11.9583 17.5C11.9167 17.7333 11.7083 17.9 11.475 17.9H8.525C8.29167 17.9 8.08333 17.7333 8.04167 17.5L7.725 15.5083C7.30833 15.3833 6.91667 15.2083 6.55833 14.9917L4.70833 15.8917C4.49167 15.9917 4.24167 15.9167 4.125 15.7083L2.13333 12.475C2.01667 12.2667 2.06667 12.0083 2.25 11.875L3.825 10.625C3.78333 10.425 3.75833 10.2167 3.75833 10C3.75833 9.78333 3.78333 9.575 3.825 9.375L2.25 8.125C2.06667 7.99167 2.01667 7.73333 2.13333 7.525L4.125 4.29167C4.24167 4.08333 4.49167 4.00833 4.70833 4.10833L6.55833 5.00833C6.91667 4.79167 7.30833 4.61667 7.725 4.49167L8.04167 2.5C8.08333 2.26667 8.29167 2.1 8.525 2.1H11.475C11.7083 2.1 11.9167 2.26667 11.9583 2.5L12.275 4.49167C12.6917 4.61667 13.0833 4.79167 13.4417 5.00833L15.3 4.10833C15.5167 4.00833 15.7667 4.08333 15.8833 4.29167L17.875 7.525C17.9917 7.73333 17.9417 7.99167 17.7583 8.125L16.1833 9.375C16.225 9.575 16.25 9.78333 16.25 10Z" stroke="#724409" stroke-width="1.5" stroke-linecap="round" stroke-linejoin="round"/>
</svg>

