<svg width="20" height="21" viewBox="0 0 20 21" xmlns="http://www.w3.org/2000/svg">
  <path d="M2.5 3.00016C2.5 2.07969 3.24619 1.3335 4.16667 1.3335H15.8333C16.7538 1.3335 17.5 2.0797 17.5 3.00016V18.0002C17.5 18.9206 16.7538 19.6668 15.8333 19.6668H4.16667C3.2462 19.6668 2.5 18.9207 2.5 18.0002V3.00016ZM15.8333 3.00016H4.16667V12.1668H15.8333V3.00016ZM15.8333 13.8335H4.16667V18.0002H15.8333V13.8335ZM8.33333 15.9168C8.33333 15.4566 8.70643 15.0835 9.16667 15.0835H10.8333C11.2936 15.0835 11.6667 15.4566 11.6667 15.9168C11.6667 16.3771 11.2936 16.7502 10.8333 16.7502H9.16667C8.70643 16.7502 8.33333 16.3771 8.33333 15.9168Z" fill="#454545"/>
</svg>

