<svg width="20" height="20" viewBox="0 0 20 20" fill="none" xmlns="http://www.w3.org/2000/svg">
<path d="M8.33325 7.49967C8.79349 7.49967 9.16658 7.87277 9.16658 8.33301V13.7497C9.16658 14.2099 8.79349 14.583 8.33325 14.583C7.87301 14.583 7.49992 14.2099 7.49992 13.7497V8.33301C7.49992 7.87277 7.87301 7.49967 8.33325 7.49967Z" fill="#1C1C1C"/>
<path d="M12.4999 8.33301C12.4999 7.87277 12.1268 7.49967 11.6666 7.49967C11.2063 7.49967 10.8333 7.87277 10.8333 8.33301V13.7497C10.8333 14.2099 11.2063 14.583 11.6666 14.583C12.1268 14.583 12.4999 14.2099 12.4999 13.7497V8.33301Z" fill="#1C1C1C"/>
<path fill-rule="evenodd" clip-rule="evenodd" d="M8.037 0.833008C7.73267 0.833008 7.45254 0.998906 7.30626 1.26577L6.17307 3.33301H1.66659C1.20635 3.33301 0.833252 3.7061 0.833252 4.16634C0.833252 4.62658 1.20635 4.99967 1.66659 4.99967H2.91659V18.333C2.91659 18.7932 3.28968 19.1663 3.74992 19.1663H16.2499C16.7102 19.1663 17.0833 18.7932 17.0833 18.333V4.99967H18.3333C18.7935 4.99967 19.1666 4.62658 19.1666 4.16634C19.1666 3.7061 18.7935 3.33301 18.3333 3.33301H13.8316L12.7245 1.272C12.5793 1.00166 12.2972 0.833008 11.9904 0.833008H8.037ZM11.9397 3.33301L11.4921 2.49967H8.53052L8.07371 3.33301H11.9397ZM4.58325 4.99967V17.4997H15.4166V4.99967H4.58325Z" fill="#1C1C1C"/>
</svg>
