<svg width="14" height="14" viewBox="0 0 14 14" fill="none" xmlns="http://www.w3.org/2000/svg">
<path fill-rule="evenodd" clip-rule="evenodd" d="M1.95263 1.95262C3.15831 0.746922 4.82589 0 6.66667 0C10.3486 0 13.3333 2.98478 13.3333 6.66667C13.3333 10.3486 10.3486 13.3333 6.66667 13.3333C4.82589 13.3333 3.15831 12.5864 1.95262 11.3807C1.69228 11.1203 1.69228 10.6982 1.95264 10.4379C2.21299 10.1775 2.6351 10.1776 2.89545 10.4379C3.86129 11.4038 5.19371 12 6.66667 12C9.61218 12 12 9.61218 12 6.66667C12 3.72116 9.61218 1.33333 6.66667 1.33333C5.19371 1.33333 3.86129 1.92956 2.89544 2.89543L2.89543 2.89544C2.70923 3.08164 2.44003 3.36924 2.16686 3.66667H3.33333C3.70152 3.66667 4 3.96514 4 4.33333C4 4.70152 3.70152 5 3.33333 5H0.666667C0.298477 5 0 4.70152 0 4.33333V1.66667C0 1.29848 0.298477 1 0.666667 1C1.03486 1 1.33333 1.29848 1.33333 1.66667V2.60365C1.56233 2.35615 1.7845 2.12076 1.95263 1.95262Z" fill="#3D3D3D"/>
</svg>
