<svg width="19" height="16" viewBox="0 0 19 16" fill="none" xmlns="http://www.w3.org/2000/svg">
<path fill-rule="evenodd" clip-rule="evenodd" d="M0.789839 3.75037C2.1252 1.18862 4.90178 -0.284551 7.77173 0.0459979C10.423 0.35137 12.6468 2.13776 13.5364 4.6144L13.8879 4.6144C15.8291 4.61313 17.7692 5.63908 18.411 7.665C19.0265 9.60744 18.3118 11.7247 16.645 12.8967C16.2685 13.1615 15.7487 13.0709 15.484 12.6944C15.2193 12.3179 15.3099 11.7981 15.6863 11.5334C16.7584 10.7795 17.2181 9.41777 16.8222 8.16838C16.4529 7.00269 15.2959 6.27998 13.8892 6.28107L12.9215 6.28107C12.541 6.28107 12.2088 6.02338 12.1143 5.65485C11.5679 3.5254 9.76504 1.95327 7.58103 1.70172C5.39698 1.45017 3.28398 2.57126 2.26776 4.52077C1.25154 6.47027 1.54253 8.8445 2.99947 10.4909C3.30447 10.8356 3.27232 11.3622 2.92765 11.6672C2.58299 11.9722 2.05633 11.9401 1.75133 11.5954C-0.163147 9.43197 -0.545524 6.31211 0.789839 3.75037ZM8.69392 6.19081C9.01936 5.86538 9.54699 5.86538 9.87242 6.19081L12.5241 8.84243C12.8495 9.16787 12.8495 9.6955 12.5241 10.0209C12.1987 10.3464 11.671 10.3464 11.3456 10.021L10.1171 8.79245L10.12 14.9996C10.1202 15.4599 9.74726 15.8331 9.28702 15.8334C8.82678 15.8336 8.45351 15.4607 8.4533 15.0004L8.4504 8.79133L7.22076 10.021C6.89532 10.3464 6.36768 10.3464 6.04225 10.0209C5.71681 9.6955 5.71681 9.16787 6.04225 8.84243L8.69392 6.19081Z" fill="#1C278C"/>
</svg>
