<svg width="10" height="15" viewBox="0 0 10 15" fill="none" xmlns="http://www.w3.org/2000/svg">
<path d="M4.21555 14.5463V0.000886917H5.14737V14.5463H4.21555ZM6.68715 4.80202C6.64169 4.34369 6.44661 3.98763 6.10192 3.73384C5.75722 3.48005 5.28942 3.35316 4.69851 3.35316C4.29699 3.35316 3.95798 3.40998 3.68146 3.52361C3.40495 3.63346 3.19283 3.78687 3.0451 3.98384C2.90116 4.18081 2.82919 4.4043 2.82919 4.6543C2.82161 4.86263 2.86518 5.04445 2.95987 5.19975C3.05836 5.35505 3.19283 5.48952 3.36328 5.60316C3.53374 5.71301 3.73071 5.8096 3.95419 5.89293C4.17768 5.97248 4.41631 6.04066 4.6701 6.09748L5.71555 6.34748C6.22313 6.46111 6.68904 6.61263 7.11328 6.80202C7.53752 6.99142 7.90495 7.22437 8.21555 7.50089C8.52616 7.7774 8.76669 8.10316 8.93715 8.47816C9.11139 8.85316 9.2004 9.28308 9.20419 9.76793C9.2004 10.4801 9.01858 11.0975 8.65874 11.6202C8.30268 12.1391 7.78752 12.5426 7.11328 12.8304C6.44283 13.1145 5.63411 13.2566 4.68715 13.2566C3.74775 13.2566 2.92957 13.1126 2.2326 12.8248C1.53942 12.5369 0.997751 12.1107 0.607599 11.5463C0.221236 10.9782 0.0185843 10.2755 -0.000355124 9.43839H2.38033C2.40684 9.82854 2.51858 10.1543 2.71555 10.4157C2.91631 10.6732 3.18336 10.8683 3.51669 11.0009C3.85381 11.1297 4.23449 11.1941 4.65874 11.1941C5.0754 11.1941 5.43714 11.1335 5.74396 11.0123C6.05457 10.891 6.2951 10.7225 6.46555 10.5066C6.63601 10.2907 6.72124 10.0426 6.72124 9.76225C6.72124 9.50089 6.64358 9.28119 6.48828 9.10316C6.33677 8.92513 6.11328 8.77361 5.81783 8.64861C5.52616 8.52361 5.16821 8.40998 4.74396 8.30771L3.47692 7.98952C2.49586 7.75089 1.72124 7.37778 1.15305 6.87021C0.584872 6.36263 0.302675 5.67892 0.306463 4.81907C0.302675 4.11452 0.490175 3.49899 0.868963 2.97248C1.25154 2.44596 1.77616 2.03498 2.44283 1.73952C3.10949 1.44407 3.86707 1.29634 4.71555 1.29634C5.57919 1.29634 6.33298 1.44407 6.97692 1.73952C7.62465 2.03498 8.12843 2.44596 8.48828 2.97248C8.84813 3.49899 9.03374 4.10884 9.0451 4.80202H6.68715Z" fill="#1C1C1C"/>
</svg>
