<svg width="20" height="18" viewBox="0 0 20 18" fill="none" xmlns="http://www.w3.org/2000/svg">
<path fill-rule="evenodd" clip-rule="evenodd" d="M10 0C10.2974 0 10.5722 0.158456 10.7212 0.415803L19.8879 16.2491C20.0371 16.507 20.0374 16.8248 19.8886 17.0829C19.7398 17.341 19.4646 17.5 19.1667 17.5H0.833333C0.535434 17.5 0.260192 17.341 0.111396 17.0829C-0.037399 16.8248 -0.0371137 16.507 0.112145 16.2491L9.27881 0.415803C9.4278 0.158456 9.70263 0 10 0ZM2.27871 15.8333H17.7213L10 2.49655L2.27871 15.8333ZM9.99931 5.83355C10.4595 5.83317 10.833 6.20595 10.8333 6.66619L10.8368 10.8327C10.8372 11.2929 10.4644 11.6663 10.0041 11.6667C9.54391 11.6671 9.17051 11.2943 9.17013 10.834L9.16667 6.66758C9.16628 6.20734 9.53907 5.83393 9.99931 5.83355ZM10 12.5C10.4602 12.5 10.8333 12.8731 10.8333 13.3333V13.75C10.8333 14.2102 10.4602 14.5833 10 14.5833C9.53976 14.5833 9.16667 14.2102 9.16667 13.75V13.3333C9.16667 12.8731 9.53976 12.5 10 12.5Z" fill="#5D5D5D"/>
</svg>
