<svg width="20" height="20" viewBox="0 0 20 20" fill="none" xmlns="http://www.w3.org/2000/svg">
<path d="M5.83329 8.33329H8.33329V5.83329L5.41663 2.91663C6.34965 2.47102 7.39788 2.32563 8.41696 2.50048C9.43604 2.67533 10.3759 3.16181 11.107 3.89294C11.8381 4.62407 12.3246 5.56388 12.4994 6.58296C12.6743 7.60204 12.5289 8.65027 12.0833 9.58329L17.0833 14.5833C17.4148 14.9148 17.6011 15.3645 17.6011 15.8333C17.6011 16.3021 17.4148 16.7518 17.0833 17.0833C16.7518 17.4148 16.3021 17.6011 15.8333 17.6011C15.3645 17.6011 14.9148 17.4148 14.5833 17.0833L9.58329 12.0833C8.65027 12.5289 7.60204 12.6743 6.58296 12.4994C5.56388 12.3246 4.62407 11.8381 3.89294 11.107C3.16181 10.3759 2.67533 9.43604 2.50048 8.41696C2.32563 7.39788 2.47102 6.34965 2.91663 5.41663L5.83329 8.33329Z" stroke="#5D5D5D" stroke-width="1.66667" stroke-linecap="round" stroke-linejoin="round"/>
</svg>
