<svg width="20" height="20" viewBox="0 0 20 20" fill="none" xmlns="http://www.w3.org/2000/svg">
<path d="M4.16667 10H2.5L10 2.5L17.5 10H15.8333M4.16667 10V15.8333C4.16667 16.2754 4.34226 16.6993 4.65482 17.0118C4.96738 17.3244 5.39131 17.5 5.83333 17.5H14.1667C14.6087 17.5 15.0326 17.3244 15.3452 17.0118C15.6577 16.6993 15.8333 16.2754 15.8333 15.8333V10" stroke="#5D5D5D" stroke-width="1.66667" stroke-linecap="round" stroke-linejoin="round"/>
<path d="M7.5 17.4999V12.4999C7.5 12.0579 7.6756 11.634 7.98816 11.3214C8.30072 11.0088 8.72464 10.8333 9.16667 10.8333H10.8333C11.2754 10.8333 11.6993 11.0088 12.0118 11.3214C12.3244 11.634 12.5 12.0579 12.5 12.4999V17.4999" stroke="#5D5D5D" stroke-width="1.66667" stroke-linecap="round" stroke-linejoin="round"/>
</svg>
