<svg width="16" height="16" viewBox="0 0 16 16" fill="none" xmlns="http://www.w3.org/2000/svg">
<path d="M7.764 13.9767C7.54961 13.9362 7.35185 13.8336 7.19528 13.6816C7.03871 13.5297 6.93023 13.3351 6.88333 13.122C6.84072 12.9461 6.75719 12.7828 6.63953 12.6453C6.52187 12.5079 6.37341 12.4001 6.20623 12.3308C6.03906 12.2616 5.85789 12.2328 5.67748 12.2468C5.49706 12.2607 5.3225 12.3171 5.168 12.4113C4.13933 13.038 2.96133 11.8607 3.588 10.8313C3.68207 10.6769 3.73837 10.5024 3.75232 10.3222C3.76628 10.1419 3.7375 9.96082 3.66831 9.79375C3.59913 9.62667 3.49151 9.47828 3.35418 9.36063C3.21686 9.24298 3.05371 9.1594 2.878 9.11667C1.70733 8.83267 1.70733 7.16733 2.878 6.88333C3.05387 6.84072 3.21719 6.75719 3.35467 6.63953C3.49215 6.52187 3.5999 6.37341 3.66916 6.20623C3.73843 6.03906 3.76723 5.85789 3.75325 5.67748C3.73926 5.49706 3.68287 5.3225 3.58867 5.168C2.962 4.13933 4.13933 2.96133 5.16867 3.588C5.83533 3.99333 6.69933 3.63467 6.88333 2.878C7.16733 1.70733 8.83267 1.70733 9.11667 2.878C9.15928 3.05387 9.24281 3.21719 9.36047 3.35467C9.47813 3.49215 9.62659 3.5999 9.79377 3.66916C9.96094 3.73843 10.1421 3.76723 10.3225 3.75325C10.5029 3.73926 10.6775 3.68287 10.832 3.58867C11.8607 2.962 13.0387 4.13933 12.412 5.16867C12.3179 5.3231 12.2616 5.49756 12.2477 5.67785C12.2337 5.85814 12.2625 6.03918 12.3317 6.20625C12.4009 6.37333 12.5085 6.52172 12.6458 6.63937C12.7831 6.75702 12.9463 6.8406 13.122 6.88333C13.6073 7.00133 13.8913 7.35667 13.9747 7.752" stroke="#724409" stroke-width="1.33333" stroke-linecap="round" stroke-linejoin="round"/>
<path d="M9.99057 7.79577C9.95205 7.41955 9.80763 7.06195 9.57409 6.76448C9.34055 6.467 9.02745 6.24184 8.67111 6.11512C8.31478 5.9884 7.92981 5.96531 7.56089 6.04853C7.19196 6.13175 6.85419 6.31787 6.58676 6.5853C6.31934 6.85272 6.13322 7.19049 6.05 7.55942C5.96678 7.92835 5.98987 8.31331 6.11659 8.66965C6.24331 9.02598 6.46847 9.33908 6.76594 9.57263C7.06341 9.80617 7.42101 9.95058 7.79724 9.98911M13.4672 13.4664L14.6672 14.6664M10.0006 11.9998C10.0006 12.5302 10.2113 13.0389 10.5864 13.414C10.9614 13.7891 11.4701 13.9998 12.0006 13.9998C12.531 13.9998 13.0397 13.7891 13.4148 13.414C13.7899 13.0389 14.0006 12.5302 14.0006 11.9998C14.0006 11.4693 13.7899 10.9606 13.4148 10.5856C13.0397 10.2105 12.531 9.99977 12.0006 9.99977C11.4701 9.99977 10.9614 10.2105 10.5864 10.5856C10.2113 10.9606 10.0006 11.4693 10.0006 11.9998Z" stroke="#724409" stroke-width="1.33333" stroke-linecap="round" stroke-linejoin="round"/>
</svg>
