<svg width="521" height="378" viewBox="0 0 521 378" fill="none" xmlns="http://www.w3.org/2000/svg">
<path fill-rule="evenodd" clip-rule="evenodd" d="M385.467 -43.0694L125.09 -40.1123L0.628884 175.46L119.892 416.665L387.514 417.856L520.236 187.976L385.467 -43.0694ZM443.91 303.881L508.488 192.029L405.268 191.569L339.89 304.808L443.91 303.881ZM439.182 312.071L382.823 409.688L279.603 409.228L335.162 312.998L439.182 312.071ZM325.705 313.082L270.219 409.187L129.465 408.56L183.86 314.345L325.705 313.082ZM176.826 310.234L122.705 403.973L59.7751 276.699L110.614 188.644L176.826 310.234ZM115.388 180.375L181.6 301.965L248.096 186.79L181.144 67.7226L180.421 67.7347L115.388 180.375ZM106.048 180.258L55.4351 267.922L9.86484 175.757L58.1012 92.2097L106.048 180.258ZM62.8753 83.9407L110.822 171.989L175.671 59.6661L176.605 59.6504L127.41 -27.837L62.8753 83.9407ZM188.589 306.155L330.434 304.892L395.885 191.527L255.131 190.901L188.589 306.155ZM394.639 183.375L255.174 182.754L190.403 67.5668L325.76 65.2898L394.639 183.375ZM321.053 57.2205L185.864 59.4946L134.377 -32.0699L268.084 -33.5884L321.053 57.2205ZM277.454 -33.6948L330.393 57.0633L433.431 55.33L380.818 -34.8687L277.454 -33.6948ZM438.138 63.3993L335.1 65.1327L404.096 183.417L508.415 183.881L438.138 63.3993Z" fill="url(#paint0_linear_453_5085)"/>
<defs>
<linearGradient id="paint0_linear_453_5085" x1="118.117" y1="-41.0139" x2="382.906" y2="431.532" gradientUnits="userSpaceOnUse">
<stop stop-color="white"/>
<stop offset="1" stop-color="#5D8BFD"/>
</linearGradient>
</defs>
</svg>
