<svg width="359" height="244" viewBox="0 0 359 244" fill="none" xmlns="http://www.w3.org/2000/svg">
<path fill-rule="evenodd" clip-rule="evenodd" d="M263.749 0.345673L81.4159 2.41639L-5.73963 153.374L77.7759 322.281L265.183 323.116L358.123 162.139L263.749 0.345673ZM304.675 243.303L349.897 164.977L277.615 164.655L231.833 243.952L304.675 243.303ZM301.364 249.038L261.897 317.396L189.616 317.074L228.522 249.687L301.364 249.038ZM221.9 249.746L183.045 317.045L84.48 316.606L122.571 250.631L221.9 249.746ZM117.645 247.752L79.7463 313.394L35.6784 224.268L71.2791 162.606L117.645 247.752ZM74.6223 156.816L120.988 241.961L167.553 161.308L120.669 77.9294L120.162 77.9379L74.6223 156.816ZM68.0815 156.734L32.6392 218.122L0.728005 153.583L34.5062 95.0769L68.0815 156.734ZM37.8494 89.2865L71.4246 150.944L116.837 72.2878L117.49 72.2768L83.0409 11.0124L37.8494 89.2865ZM125.882 244.896L225.211 244.011L271.044 164.626L172.479 164.187L125.882 244.896ZM270.172 158.916L172.509 158.482L127.153 77.8203L221.938 76.2258L270.172 158.916ZM218.642 70.5752L123.974 72.1677L87.9196 8.0482L181.55 6.98487L218.642 70.5752ZM188.111 6.91035L225.183 70.4651L297.337 69.2513L260.494 6.08831L188.111 6.91035ZM300.633 74.902L228.479 76.1158L276.794 158.946L349.845 159.271L300.633 74.902Z" fill="url(#paint0_linear_500_4955)"/>
<defs>
<linearGradient id="paint0_linear_500_4955" x1="76.5334" y1="1.78504" x2="261.956" y2="332.692" gradientUnits="userSpaceOnUse">
<stop stop-color="white"/>
<stop offset="1" stop-color="#5D8BFD"/>
</linearGradient>
</defs>
</svg>
